<svg xmlns="http://www.w3.org/2000/svg" xmlns:xlink="http://www.w3.org/1999/xlink" width="1080" zoomAndPan="magnify" viewBox="0 0 810 809.999993" height="1080" preserveAspectRatio="xMidYMid meet" version="1.0"><path fill="#61dafb" d="M 751.363281 401.371094 C 751.363281 352.832031 695.160156 311.957031 605.746094 286.410156 C 628.738281 196.996094 621.074219 128.019531 580.199219 102.472656 C 569.980469 97.363281 559.761719 94.808594 546.988281 94.808594 C 508.667969 94.808594 457.574219 122.910156 406.480469 171.449219 C 355.386719 122.910156 306.847656 94.808594 265.972656 94.808594 C 253.199219 94.808594 242.980469 97.363281 232.761719 102.472656 C 194.441406 128.019531 186.777344 196.996094 207.214844 286.410156 C 120.355469 311.957031 61.597656 355.386719 61.597656 401.371094 C 61.597656 449.910156 117.800781 490.785156 207.214844 516.332031 C 186.777344 605.746094 194.441406 677.277344 235.316406 700.269531 C 245.535156 705.378906 255.753906 707.933594 268.527344 707.933594 C 306.847656 707.933594 357.941406 679.832031 409.035156 631.292969 C 460.128906 679.832031 508.667969 707.933594 549.542969 707.933594 C 562.316406 707.933594 572.535156 705.378906 582.753906 700.269531 C 623.628906 677.277344 631.292969 605.746094 610.855469 516.332031 C 695.160156 490.785156 751.363281 447.355469 751.363281 401.371094 Z M 546.988281 128.019531 C 554.652344 128.019531 559.761719 128.019531 562.316406 133.128906 C 582.753906 143.347656 590.417969 184.222656 582.753906 237.871094 C 580.199219 250.644531 577.644531 265.972656 575.089844 278.746094 C 546.988281 271.082031 518.886719 268.527344 485.675781 263.417969 C 467.792969 237.871094 449.910156 214.878906 429.472656 194.441406 C 475.457031 151.011719 518.886719 128.019531 546.988281 128.019531 Z M 501.003906 455.019531 C 490.785156 472.902344 480.566406 490.785156 467.792969 506.113281 C 447.355469 508.667969 426.917969 508.667969 406.480469 508.667969 C 386.042969 508.667969 365.605469 508.667969 345.167969 506.113281 C 334.949219 490.785156 324.730469 472.902344 311.957031 455.019531 C 301.738281 437.136719 291.519531 419.253906 283.855469 401.371094 C 291.519531 383.488281 301.738281 365.605469 311.957031 347.722656 C 322.175781 329.839844 334.949219 311.957031 345.167969 294.074219 C 365.605469 291.519531 386.042969 291.519531 406.480469 291.519531 C 426.917969 291.519531 447.355469 291.519531 467.792969 294.074219 C 478.011719 309.402344 490.785156 327.285156 501.003906 347.722656 C 511.222656 365.605469 521.441406 383.488281 529.105469 401.371094 C 521.441406 419.253906 511.222656 437.136719 501.003906 455.019531 Z M 546.988281 439.691406 C 554.652344 457.574219 559.761719 475.457031 564.871094 490.785156 C 546.988281 495.894531 529.105469 498.449219 511.222656 501.003906 C 516.332031 490.785156 523.996094 480.566406 529.105469 470.347656 C 536.769531 462.683594 541.878906 449.910156 546.988281 439.691406 Z M 406.480469 585.308594 C 393.707031 572.535156 380.933594 557.207031 370.714844 541.878906 C 383.488281 541.878906 396.261719 541.878906 406.480469 541.878906 C 419.253906 541.878906 432.027344 541.878906 442.246094 541.878906 C 432.027344 557.207031 419.253906 572.535156 406.480469 585.308594 Z M 301.738281 503.558594 C 283.855469 501.003906 265.972656 498.449219 248.089844 493.339844 C 253.199219 475.457031 260.863281 457.574219 265.972656 442.246094 C 271.082031 452.464844 276.191406 462.683594 283.855469 472.902344 C 291.519531 483.121094 296.628906 493.339844 301.738281 503.558594 Z M 265.972656 363.050781 C 258.308594 345.167969 253.199219 327.285156 245.535156 309.402344 C 263.417969 304.292969 281.300781 301.738281 301.738281 299.183594 C 294.074219 309.402344 288.964844 319.621094 281.300781 329.839844 C 278.746094 342.613281 273.636719 352.832031 265.972656 363.050781 Z M 406.480469 217.433594 C 419.253906 230.207031 429.472656 245.535156 442.246094 258.308594 C 429.472656 258.308594 419.253906 258.308594 406.480469 258.308594 C 393.707031 258.308594 383.488281 258.308594 370.714844 258.308594 C 383.488281 245.535156 396.261719 230.207031 406.480469 217.433594 Z M 529.105469 329.839844 C 521.441406 319.621094 516.332031 309.402344 508.667969 299.183594 C 529.105469 301.738281 546.988281 304.292969 564.871094 309.402344 C 559.761719 327.285156 552.097656 345.167969 544.433594 363.050781 C 541.878906 352.832031 536.769531 342.613281 529.105469 329.839844 Z M 232.761719 235.316406 C 225.097656 181.667969 232.761719 143.347656 253.199219 130.574219 C 258.308594 128.019531 263.417969 125.464844 268.527344 125.464844 C 296.628906 125.464844 337.503906 148.457031 383.488281 191.886719 C 365.605469 212.324219 345.167969 235.316406 327.285156 260.863281 C 296.628906 263.417969 265.972656 268.527344 237.871094 276.191406 C 235.316406 263.417969 232.761719 248.089844 232.761719 235.316406 Z M 176.558594 470.347656 C 128.019531 449.910156 94.808594 421.808594 94.808594 401.371094 C 94.808594 378.378906 125.464844 352.832031 174.003906 332.394531 C 186.777344 327.285156 199.550781 322.175781 214.878906 319.621094 C 222.542969 347.722656 232.761719 375.824219 248.089844 403.925781 C 235.316406 432.027344 225.097656 460.128906 217.433594 485.675781 C 202.105469 480.566406 189.332031 475.457031 176.558594 470.347656 Z M 250.644531 672.167969 C 230.207031 661.949219 222.542969 621.074219 230.207031 567.425781 C 232.761719 554.652344 235.316406 539.324219 237.871094 523.996094 C 265.972656 529.105469 294.074219 534.214844 324.730469 536.769531 C 342.613281 562.316406 363.050781 585.308594 380.933594 605.746094 C 334.949219 649.175781 294.074219 672.167969 265.972656 672.167969 C 260.863281 674.722656 255.753906 672.167969 250.644531 672.167969 Z M 582.753906 567.425781 C 590.417969 621.074219 582.753906 659.394531 562.316406 672.167969 C 557.207031 674.722656 552.097656 677.277344 546.988281 677.277344 C 518.886719 677.277344 478.011719 654.285156 432.027344 610.855469 C 452.464844 590.417969 470.347656 567.425781 488.230469 541.878906 C 518.886719 539.324219 549.542969 534.214844 575.089844 529.105469 C 577.644531 539.324219 580.199219 552.097656 582.753906 567.425781 Z M 638.957031 470.347656 C 626.183594 475.457031 613.410156 480.566406 598.082031 483.121094 C 590.417969 457.574219 580.199219 429.472656 567.425781 401.371094 C 580.199219 373.269531 590.417969 345.167969 600.636719 317.066406 C 613.410156 322.175781 628.738281 324.730469 641.511719 329.839844 C 690.050781 350.277344 720.707031 375.824219 720.707031 398.816406 C 718.152344 421.808594 687.496094 449.910156 638.957031 470.347656 Z M 638.957031 470.347656 " fill-opacity="1" fill-rule="nonzero"/><path fill="#61dafb" d="M 409.035156 465.238281 C 444.800781 465.238281 472.902344 437.136719 472.902344 401.371094 C 472.902344 365.605469 444.800781 337.503906 409.035156 337.503906 C 373.269531 337.503906 345.167969 365.605469 345.167969 401.371094 C 345.167969 437.136719 373.269531 465.238281 409.035156 465.238281 Z M 409.035156 465.238281 " fill-opacity="1" fill-rule="nonzero"/></svg>