<svg xmlns="http://www.w3.org/2000/svg" xmlns:xlink="http://www.w3.org/1999/xlink" width="1080" zoomAndPan="magnify" viewBox="0 0 810 809.999993" height="1080" preserveAspectRatio="xMidYMid meet" version="1.0"><path fill="#563d7c" d="M 0 705.554688 C 0 763.234375 46.761719 810 104.441406 810 L 705.550781 810 C 763.230469 810 809.996094 763.234375 809.996094 705.554688 L 809.996094 104.445312 C 809.996094 46.753906 763.230469 0 705.550781 0 L 104.441406 0 C 46.753906 0 -0.00390625 46.761719 -0.00390625 104.441406 L -0.00390625 705.550781 Z M 0 705.554688 " fill-opacity="1" fill-rule="nonzero"/><path fill="#ffffff" d="M 335.898438 358.296875 L 335.898438 243.585938 L 436.863281 243.585938 C 446.480469 243.585938 455.75 244.386719 464.675781 245.988281 C 473.597656 247.589844 481.507812 250.453125 488.371094 254.574219 C 495.238281 258.695312 500.746094 264.421875 504.859375 271.746094 C 508.972656 279.074219 511.027344 288.460938 511.027344 299.910156 C 511.027344 320.519531 504.859375 335.390625 492.488281 344.566406 C 480.148438 353.710938 464.328125 358.296875 445.089844 358.296875 Z M 228.050781 159.785156 L 228.050781 650.214844 L 465.71875 650.214844 C 487.675781 650.214844 509.097656 647.460938 529.917969 641.957031 C 550.769531 636.484375 569.308594 628.003906 585.574219 616.550781 C 601.835938 605.09375 614.746094 590.351562 624.363281 572.253906 C 633.984375 554.152344 638.792969 532.765625 638.792969 508.023438 C 638.792969 477.363281 631.355469 451.132812 616.484375 429.394531 C 601.582031 407.625 579.054688 392.40625 548.804688 383.707031 C 570.796875 373.167969 587.40625 359.660156 598.609375 343.175781 C 609.839844 326.6875 615.441406 306.089844 615.441406 281.359375 C 615.441406 258.464844 611.675781 239.234375 604.113281 223.664062 C 596.550781 208.09375 585.921875 195.617188 572.1875 186.230469 C 558.425781 176.84375 541.941406 170.085938 522.734375 165.96875 C 503.496094 161.84375 482.203125 159.785156 458.851562 159.785156 Z M 335.898438 566.429688 L 335.898438 431.800781 L 453.347656 431.800781 C 476.699219 431.800781 495.460938 437.179688 509.667969 447.9375 C 523.875 458.695312 530.960938 476.667969 530.960938 501.851562 C 530.960938 514.667969 528.777344 525.203125 524.441406 533.460938 C 520.078125 541.6875 514.253906 548.207031 506.914062 553.015625 C 499.605469 557.824219 491.125 561.273438 481.507812 563.328125 C 471.886719 565.386719 461.828125 566.429688 451.289062 566.429688 Z M 335.898438 566.429688 " fill-opacity="1" fill-rule="nonzero"/></svg>