<svg xmlns="http://www.w3.org/2000/svg" xmlns:xlink="http://www.w3.org/1999/xlink" width="1080" zoomAndPan="magnify" viewBox="0 0 810 809.999993" height="1080" preserveAspectRatio="xMidYMid meet" version="1.0"><defs><clipPath id="b843a23879"><path d="M 123.960938 286.078125 L 809 286.078125 L 809 523.660156 L 123.960938 523.660156 Z M 123.960938 286.078125 " clip-rule="nonzero"/></clipPath><clipPath id="83138838a1"><path d="M 0 286.078125 L 124.449219 286.078125 L 124.449219 523.660156 L 0 523.660156 Z M 0 286.078125 " clip-rule="nonzero"/></clipPath></defs><g clip-path="url(#b843a23879)"><path fill="#e8e6e3" d="M -2.976562 471.320312 L -2.976562 380.035156 L 110.496094 380.035156 L 110.496094 374.695312 L -2.976562 374.695312 L -2.976562 291.414062 L 117.667969 291.414062 L 117.667969 286.078125 L -8.289062 286.078125 L -8.289062 476.65625 L 118.734375 476.65625 L 118.734375 471.320312 L -2.976562 471.320312 L -2.972656 471.320312 Z M 221.050781 339.460938 L 174.015625 401.652344 L 128.035156 339.460938 L 121.128906 339.460938 L 170.824219 405.65625 L 116.34375 476.65625 L 122.722656 476.65625 L 174.015625 409.660156 L 225.5625 476.65625 L 232.199219 476.65625 L 177.460938 405.65625 L 227.429688 339.460938 Z M 248.148438 523.648438 L 248.148438 438.226562 L 248.675781 438.226562 C 251.863281 450.675781 258.164062 460.6875 267.542969 468.25 C 276.9375 475.8125 288.898438 479.589844 303.429688 479.589844 C 312.808594 479.589844 321.132812 477.683594 328.40625 473.855469 C 335.664062 470.027344 341.738281 464.820312 346.601562 458.253906 C 351.484375 451.667969 355.199219 444.007812 357.769531 435.289062 C 360.335938 426.570312 361.613281 417.40625 361.613281 407.796875 C 361.613281 397.476562 360.289062 387.953125 357.640625 379.234375 C 354.976562 370.515625 351.117188 362.953125 346.078125 356.546875 C 341.019531 350.140625 334.914062 345.160156 327.734375 341.597656 C 320.558594 338.039062 312.457031 336.261719 303.429688 336.261719 C 296.507812 336.261719 290.09375 337.285156 284.160156 339.332031 C 278.226562 341.378906 272.949219 344.269531 268.339844 348.003906 C 263.746094 351.742188 259.757812 356.148438 256.394531 361.21875 C 253.027344 366.289062 250.445312 371.851562 248.675781 377.902344 L 248.148438 377.902344 L 248.148438 339.464844 L 242.835938 339.464844 L 242.835938 523.652344 L 248.148438 523.652344 Z M 303.429688 474.527344 C 286.777344 474.527344 273.394531 468.792969 263.300781 457.308594 C 253.203125 445.832031 248.148438 429.328125 248.148438 407.796875 C 248.148438 398.898438 249.390625 390.445312 251.863281 382.4375 C 254.351562 374.429688 257.941406 367.402344 262.628906 361.351562 C 267.320312 355.300781 273.125 350.496094 280.03125 346.9375 C 286.953125 343.378906 294.734375 341.597656 303.429688 341.597656 C 312.28125 341.597656 320.03125 343.378906 326.667969 346.9375 C 333.316406 350.496094 338.804688 355.347656 343.140625 361.484375 C 347.496094 367.625 350.765625 374.652344 352.984375 382.570312 C 355.199219 390.488281 356.300781 398.898438 356.300781 407.796875 C 356.300781 415.804688 355.28125 423.765625 353.253906 431.683594 C 351.210938 439.605469 348.070312 446.71875 343.8125 453.046875 C 339.570312 459.359375 334.113281 464.515625 327.464844 468.519531 C 320.828125 472.527344 312.808594 474.527344 303.429688 474.527344 Z M 390.847656 476.660156 L 390.847656 398.988281 C 390.847656 391.515625 391.914062 384.21875 394.035156 377.101562 C 396.15625 369.980469 399.445312 363.707031 403.878906 358.28125 C 408.296875 352.855469 413.925781 348.582031 420.753906 345.46875 C 427.5625 342.355469 435.664062 341.066406 445.058594 341.597656 L 445.058594 336.261719 C 436.910156 336.082031 429.78125 336.972656 423.671875 338.929688 C 417.5625 340.886719 412.28125 343.554688 407.863281 346.9375 C 403.429688 350.320312 399.890625 354.277344 397.226562 358.816406 C 394.5625 363.351562 392.617188 368.203125 391.390625 373.363281 L 390.847656 373.363281 L 390.847656 339.464844 L 385.535156 339.464844 L 385.535156 476.660156 Z M 451.710938 409.128906 L 565.972656 409.128906 C 566.320312 399.699219 565.398438 390.625 563.179688 381.90625 C 560.964844 373.183594 557.421875 365.445312 552.558594 358.683594 C 547.675781 351.921875 541.394531 346.492188 533.691406 342.398438 C 525.96875 338.304688 516.816406 336.261719 506.175781 336.261719 C 498.570312 336.261719 491.121094 337.863281 483.863281 341.066406 C 476.589844 344.269531 470.210938 348.9375 464.722656 355.078125 C 459.238281 361.21875 454.804688 368.734375 451.4375 377.632812 C 448.074219 386.53125 446.382812 396.675781 446.382812 408.0625 C 446.382812 418.207031 447.546875 427.683594 449.84375 436.488281 C 452.140625 445.296875 455.695312 452.949219 460.464844 459.4375 C 465.25 465.941406 471.40625 470.972656 478.933594 474.527344 C 486.464844 478.085938 495.554688 479.785156 506.175781 479.589844 C 521.777344 479.589844 534.886719 475.1875 545.507812 466.390625 C 556.128906 457.578125 562.429688 445.164062 564.375 429.148438 L 559.066406 429.148438 C 556.753906 444.277344 550.867188 455.625 541.394531 463.1875 C 531.917969 470.75 520.003906 474.527344 505.652344 474.527344 C 495.90625 474.527344 487.660156 472.832031 480.929688 469.449219 C 474.199219 466.070312 468.710938 461.441406 464.453125 455.578125 C 460.210938 449.699219 457.070312 442.808594 455.027344 434.886719 C 452.984375 426.96875 451.886719 418.382812 451.710938 409.128906 Z M 560.660156 403.792969 L 451.710938 403.792969 C 452.234375 394.183594 454.007812 385.550781 457.019531 377.902344 C 460.035156 370.25 463.976562 363.707031 468.839844 358.28125 C 473.71875 352.855469 479.382812 348.714844 485.859375 345.871094 C 492.316406 343.023438 499.269531 341.597656 506.703125 341.597656 C 515.570312 341.597656 523.371094 343.246094 530.101562 346.539062 C 536.832031 349.832031 542.445312 354.324219 546.976562 360.019531 C 551.488281 365.710938 554.902344 372.339844 557.199219 379.902344 C 559.511719 387.464844 560.660156 395.429688 560.660156 403.792969 Z M 676.246094 380.035156 L 681.574219 380.035156 C 681.574219 364.734375 677.136719 353.609375 668.285156 346.671875 C 659.417969 339.730469 647.378906 336.261719 632.144531 336.261719 C 623.628906 336.261719 616.46875 337.328125 610.613281 339.464844 C 604.761719 341.597656 599.992188 344.359375 596.257812 347.738281 C 592.542969 351.121094 589.878906 354.855469 588.285156 358.949219 C 586.707031 363.042969 585.90625 366.957031 585.90625 370.695312 C 585.90625 378.167969 587.230469 384.128906 589.878906 388.578125 C 592.542969 393.027344 596.707031 396.496094 602.382812 398.988281 C 606.273438 400.765625 610.710938 402.367188 615.667969 403.792969 C 620.628906 405.214844 626.386719 406.730469 632.941406 408.328125 C 638.78125 409.753906 644.539062 411.175781 650.214844 412.601562 C 655.878906 414.023438 660.886719 415.9375 665.222656 418.339844 C 669.5625 420.742188 673.101562 423.8125 675.847656 427.550781 C 678.605469 431.285156 679.976562 436.179688 679.976562 442.226562 C 679.976562 448.09375 678.605469 453.078125 675.847656 457.179688 C 673.101562 461.265625 669.609375 464.613281 665.351562 467.191406 C 661.109375 469.769531 656.371094 471.628906 651.140625 472.800781 C 645.910156 473.953125 640.820312 474.527344 635.863281 474.527344 C 619.738281 474.527344 607.375 470.925781 598.796875 463.714844 C 590.199219 456.507812 585.90625 445.164062 585.90625 429.683594 L 580.582031 429.683594 C 580.582031 446.941406 585.238281 459.582031 594.535156 467.59375 C 603.835938 475.585938 617.617188 479.589844 635.863281 479.589844 C 641.699219 479.589844 647.601562 478.933594 653.535156 477.589844 C 659.464844 476.257812 664.777344 474.082031 669.484375 471.050781 C 674.171875 468.023438 677.984375 464.117188 680.902344 459.308594 C 683.820312 454.503906 685.289062 448.640625 685.289062 441.695312 C 685.289062 435.109375 683.996094 429.773438 681.429688 425.679688 C 678.859375 421.585938 675.496094 418.207031 671.332031 415.535156 C 667.171875 412.867188 662.480469 410.777344 657.25 409.265625 C 652.019531 407.75 646.753906 406.285156 641.445312 404.859375 C 633.996094 402.902344 627.488281 401.210938 621.90625 399.789062 C 616.324219 398.363281 611.140625 396.675781 606.355469 394.714844 C 601.761719 392.757812 598.078125 389.957031 595.335938 386.308594 C 592.589844 382.660156 591.21875 377.457031 591.21875 370.695312 C 591.21875 369.449219 591.570312 367.222656 592.273438 364.019531 C 592.988281 360.816406 594.664062 357.570312 597.328125 354.277344 C 599.992188 350.988281 604.058594 348.050781 609.546875 345.46875 C 615.046875 342.890625 622.574219 341.597656 632.144531 341.597656 C 638.699219 341.597656 644.664062 342.3125 650.074219 343.734375 C 655.480469 345.160156 660.136719 347.425781 664.027344 350.542969 C 667.917969 353.65625 670.933594 357.613281 673.054688 362.417969 C 675.191406 367.222656 676.246094 373.097656 676.246094 380.035156 Z M 799.292969 380.035156 L 804.605469 380.035156 C 804.605469 364.734375 800.171875 353.609375 791.320312 346.671875 C 782.453125 339.730469 770.410156 336.261719 755.179688 336.261719 C 746.679688 336.261719 739.5 337.328125 733.648438 339.464844 C 727.808594 341.597656 723.023438 344.359375 719.292969 347.738281 C 715.578125 351.121094 712.929688 354.855469 711.332031 358.949219 C 709.738281 363.042969 708.941406 366.957031 708.941406 370.695312 C 708.941406 378.167969 710.265625 384.128906 712.929688 388.578125 C 715.578125 393.027344 719.738281 396.496094 725.417969 398.988281 C 729.308594 400.765625 733.742188 402.367188 738.703125 403.792969 C 743.664062 405.214844 749.421875 406.730469 755.976562 408.328125 C 761.8125 409.753906 767.570312 411.175781 773.25 412.601562 C 778.910156 414.023438 783.917969 415.9375 788.257812 418.339844 C 792.597656 420.742188 796.136719 423.8125 798.894531 427.550781 C 801.640625 431.285156 803.011719 436.179688 803.011719 442.226562 C 803.011719 448.09375 801.640625 453.078125 798.894531 457.179688 C 796.136719 461.265625 792.644531 464.613281 788.386719 467.191406 C 784.144531 469.769531 779.40625 471.628906 774.175781 472.800781 C 768.941406 473.953125 763.855469 474.527344 758.894531 474.527344 C 742.769531 474.527344 730.410156 470.925781 721.828125 463.714844 C 713.230469 456.507812 708.941406 445.164062 708.941406 429.683594 L 703.613281 429.683594 C 703.613281 446.941406 708.273438 459.582031 717.570312 467.59375 C 726.867188 475.585938 740.648438 479.589844 758.894531 479.589844 C 764.75 479.589844 770.632812 478.933594 776.566406 477.589844 C 782.5 476.257812 787.8125 474.082031 792.515625 471.050781 C 797.207031 468.023438 801.015625 464.117188 803.9375 459.308594 C 806.855469 454.503906 808.320312 448.640625 808.320312 441.695312 C 808.320312 435.109375 807.03125 429.773438 804.460938 425.679688 C 801.894531 421.585938 798.527344 418.207031 794.367188 415.535156 C 790.203125 412.867188 785.515625 410.777344 780.28125 409.265625 C 775.066406 407.75 769.789062 406.285156 764.476562 404.859375 C 757.027344 402.902344 750.523438 401.210938 744.9375 399.789062 C 739.355469 398.363281 734.191406 396.675781 729.40625 394.714844 C 724.796875 392.757812 721.109375 389.957031 718.367188 386.308594 C 715.625 382.660156 714.253906 377.457031 714.253906 370.695312 C 714.253906 369.449219 714.605469 367.222656 715.320312 364.019531 C 716.023438 360.816406 717.714844 357.570312 720.363281 354.277344 C 723.023438 350.988281 727.09375 348.050781 732.59375 345.46875 C 738.082031 342.890625 745.609375 341.597656 755.179688 341.597656 C 761.734375 341.597656 767.714844 342.3125 773.105469 343.734375 C 778.511719 345.160156 783.171875 347.425781 787.0625 350.542969 C 790.953125 353.65625 793.96875 357.613281 796.105469 362.417969 C 798.226562 367.222656 799.292969 373.097656 799.292969 380.035156 Z M 799.292969 380.035156 " fill-opacity="1" fill-rule="nonzero"/></g><g clip-path="url(#83138838a1)"><path fill="#e8e6e3" d="M -448.660156 471.320312 L -448.660156 380.035156 L -335.1875 380.035156 L -335.1875 374.695312 L -448.660156 374.695312 L -448.660156 291.414062 L -328.015625 291.414062 L -328.015625 286.078125 L -453.972656 286.078125 L -453.972656 476.65625 L -326.949219 476.65625 L -326.949219 471.320312 L -448.660156 471.320312 L -448.65625 471.320312 Z M -224.632812 339.460938 L -271.667969 401.652344 L -317.648438 339.460938 L -324.554688 339.460938 L -274.859375 405.65625 L -329.339844 476.65625 L -322.960938 476.65625 L -271.667969 409.660156 L -220.121094 476.65625 L -213.484375 476.65625 L -268.222656 405.65625 L -218.253906 339.460938 Z M -197.535156 523.648438 L -197.535156 438.226562 L -197.007812 438.226562 C -193.820312 450.675781 -187.519531 460.6875 -178.140625 468.25 C -168.746094 475.8125 -156.785156 479.589844 -142.253906 479.589844 C -132.875 479.589844 -124.550781 477.683594 -117.277344 473.855469 C -110.019531 470.027344 -103.945312 464.820312 -99.078125 458.253906 C -94.199219 451.667969 -90.484375 444.007812 -87.914062 435.289062 C -85.347656 426.570312 -84.070312 417.40625 -84.070312 407.796875 C -84.070312 397.476562 -85.394531 387.953125 -88.042969 379.234375 C -90.707031 370.515625 -94.566406 362.953125 -99.605469 356.546875 C -104.664062 350.140625 -110.769531 345.160156 -117.949219 341.597656 C -125.125 338.039062 -133.226562 336.261719 -142.253906 336.261719 C -149.175781 336.261719 -155.589844 337.285156 -161.523438 339.332031 C -167.453125 341.378906 -172.734375 344.269531 -177.34375 348.003906 C -181.9375 351.742188 -185.925781 356.148438 -189.289062 361.21875 C -192.65625 366.289062 -195.238281 371.851562 -197.007812 377.902344 L -197.535156 377.902344 L -197.535156 339.464844 L -202.847656 339.464844 L -202.847656 523.652344 L -197.535156 523.652344 Z M -142.253906 474.527344 C -158.90625 474.527344 -172.289062 468.792969 -182.382812 457.308594 C -192.480469 445.832031 -197.535156 429.328125 -197.535156 407.796875 C -197.535156 398.898438 -196.292969 390.445312 -193.820312 382.4375 C -191.332031 374.429688 -187.742188 367.402344 -183.054688 361.351562 C -178.363281 355.300781 -172.558594 350.496094 -165.652344 346.9375 C -158.730469 343.378906 -150.949219 341.597656 -142.253906 341.597656 C -133.402344 341.597656 -125.652344 343.378906 -119.015625 346.9375 C -112.367188 350.496094 -106.878906 355.347656 -102.539062 361.484375 C -98.1875 367.625 -94.917969 374.652344 -92.699219 382.570312 C -90.484375 390.488281 -89.382812 398.898438 -89.382812 407.796875 C -89.382812 415.804688 -90.402344 423.765625 -92.429688 431.683594 C -94.46875 439.605469 -97.613281 446.71875 -101.871094 453.046875 C -106.113281 459.359375 -111.566406 464.515625 -118.21875 468.519531 C -124.855469 472.527344 -132.875 474.527344 -142.253906 474.527344 Z M -54.835938 476.660156 L -54.835938 398.988281 C -54.835938 391.515625 -53.769531 384.21875 -51.644531 377.101562 C -49.523438 369.980469 -46.238281 363.707031 -41.804688 358.28125 C -37.386719 352.855469 -31.757812 348.582031 -24.929688 345.46875 C -18.121094 342.355469 -10.019531 341.066406 -0.625 341.597656 L -0.625 336.261719 C -8.773438 336.082031 -15.902344 336.972656 -22.011719 338.929688 C -28.121094 340.886719 -33.398438 343.554688 -37.816406 346.9375 C -42.253906 350.320312 -45.792969 354.277344 -48.457031 358.816406 C -51.121094 363.351562 -53.066406 368.203125 -54.292969 373.363281 L -54.835938 373.363281 L -54.835938 339.464844 L -60.148438 339.464844 L -60.148438 476.660156 Z M 6.027344 409.128906 L 120.289062 409.128906 C 120.640625 399.699219 119.714844 390.625 117.496094 381.90625 C 115.28125 373.183594 111.738281 365.445312 106.875 358.683594 C 101.992188 351.921875 95.710938 346.492188 88.007812 342.398438 C 80.285156 338.304688 71.132812 336.261719 60.492188 336.261719 C 52.886719 336.261719 45.4375 337.863281 38.179688 341.066406 C 30.90625 344.269531 24.527344 348.9375 19.042969 355.078125 C 13.554688 361.21875 9.121094 368.734375 5.753906 377.632812 C 2.390625 386.53125 0.699219 396.675781 0.699219 408.0625 C 0.699219 418.207031 1.863281 427.683594 4.160156 436.488281 C 6.457031 445.296875 10.015625 452.949219 14.78125 459.4375 C 19.566406 465.941406 25.722656 470.972656 33.253906 474.527344 C 40.78125 478.085938 49.871094 479.785156 60.492188 479.589844 C 76.09375 479.589844 89.203125 475.1875 99.824219 466.390625 C 110.445312 457.578125 116.746094 445.164062 118.691406 429.148438 L 113.382812 429.148438 C 111.070312 444.277344 105.183594 455.625 95.710938 463.1875 C 86.234375 470.75 74.320312 474.527344 59.96875 474.527344 C 50.222656 474.527344 41.976562 472.832031 35.246094 469.449219 C 28.515625 466.070312 23.027344 461.441406 18.769531 455.578125 C 14.527344 449.699219 11.386719 442.808594 9.34375 434.886719 C 7.300781 426.96875 6.203125 418.382812 6.027344 409.128906 Z M 114.976562 403.792969 L 6.027344 403.792969 C 6.554688 394.183594 8.324219 385.550781 11.335938 377.902344 C 14.351562 370.25 18.292969 363.707031 23.15625 358.28125 C 28.035156 352.855469 33.699219 348.714844 40.175781 345.871094 C 46.632812 343.023438 53.585938 341.597656 61.019531 341.597656 C 69.886719 341.597656 77.6875 343.246094 84.417969 346.539062 C 91.148438 349.832031 96.761719 354.324219 101.292969 360.019531 C 105.804688 365.710938 109.21875 372.339844 111.515625 379.902344 C 113.828125 387.464844 114.976562 395.429688 114.976562 403.792969 Z M 230.5625 380.035156 L 235.890625 380.035156 C 235.890625 364.734375 231.457031 353.609375 222.601562 346.671875 C 213.734375 339.730469 201.695312 336.261719 186.460938 336.261719 C 177.945312 336.261719 170.785156 337.328125 164.929688 339.464844 C 159.078125 341.597656 154.308594 344.359375 150.574219 347.738281 C 146.859375 351.121094 144.195312 354.855469 142.601562 358.949219 C 141.023438 363.042969 140.226562 366.957031 140.226562 370.695312 C 140.226562 378.167969 141.546875 384.128906 144.195312 388.578125 C 146.859375 393.027344 151.023438 396.496094 156.699219 398.988281 C 160.59375 400.765625 165.027344 402.367188 169.984375 403.792969 C 174.945312 405.214844 180.703125 406.730469 187.257812 408.328125 C 193.097656 409.753906 198.855469 411.175781 204.53125 412.601562 C 210.195312 414.023438 215.203125 415.9375 219.539062 418.339844 C 223.878906 420.742188 227.421875 423.8125 230.164062 427.550781 C 232.921875 431.285156 234.292969 436.179688 234.292969 442.226562 C 234.292969 448.09375 232.921875 453.078125 230.164062 457.179688 C 227.421875 461.265625 223.925781 464.613281 219.667969 467.191406 C 215.425781 469.769531 210.6875 471.628906 205.457031 472.800781 C 200.226562 473.953125 195.136719 474.527344 190.179688 474.527344 C 174.054688 474.527344 161.691406 470.925781 153.113281 463.714844 C 144.515625 456.507812 140.226562 445.164062 140.226562 429.683594 L 134.898438 429.683594 C 134.898438 446.941406 139.554688 459.582031 148.851562 467.59375 C 158.152344 475.585938 171.933594 479.589844 190.179688 479.589844 C 196.015625 479.589844 201.917969 478.933594 207.851562 477.589844 C 213.785156 476.257812 219.09375 474.082031 223.800781 471.050781 C 228.488281 468.023438 232.300781 464.117188 235.21875 459.308594 C 238.136719 454.503906 239.605469 448.640625 239.605469 441.695312 C 239.605469 435.109375 238.3125 429.773438 235.746094 425.679688 C 233.175781 421.585938 229.8125 418.207031 225.648438 415.535156 C 221.488281 412.867188 216.796875 410.777344 211.566406 409.265625 C 206.335938 407.75 201.070312 406.285156 195.761719 404.859375 C 188.3125 402.902344 181.804688 401.210938 176.222656 399.789062 C 170.640625 398.363281 165.457031 396.675781 160.671875 394.714844 C 156.078125 392.757812 152.394531 389.957031 149.652344 386.308594 C 146.90625 382.660156 145.535156 377.457031 145.535156 370.695312 C 145.535156 369.449219 145.886719 367.222656 146.589844 364.019531 C 147.304688 360.816406 148.980469 357.570312 151.644531 354.277344 C 154.308594 350.988281 158.375 348.050781 163.863281 345.46875 C 169.363281 342.890625 176.890625 341.597656 186.460938 341.597656 C 193.015625 341.597656 198.980469 342.3125 204.390625 343.734375 C 209.796875 345.160156 214.453125 347.425781 218.34375 350.542969 C 222.238281 353.65625 225.25 357.613281 227.371094 362.417969 C 229.507812 367.222656 230.5625 373.097656 230.5625 380.035156 Z M 353.613281 380.035156 L 358.921875 380.035156 C 358.921875 364.734375 354.488281 353.609375 345.636719 346.671875 C 336.769531 339.730469 324.726562 336.261719 309.496094 336.261719 C 300.996094 336.261719 293.816406 337.328125 287.964844 339.464844 C 282.125 341.597656 277.339844 344.359375 273.609375 347.738281 C 269.894531 351.121094 267.246094 354.855469 265.652344 358.949219 C 264.054688 363.042969 263.257812 366.957031 263.257812 370.695312 C 263.257812 378.167969 264.582031 384.128906 267.246094 388.578125 C 269.894531 393.027344 274.054688 396.496094 279.734375 398.988281 C 283.625 400.765625 288.058594 402.367188 293.019531 403.792969 C 297.980469 405.214844 303.738281 406.730469 310.292969 408.328125 C 316.128906 409.753906 321.886719 411.175781 327.566406 412.601562 C 333.226562 414.023438 338.234375 415.9375 342.574219 418.339844 C 346.914062 420.742188 350.453125 423.8125 353.210938 427.550781 C 355.957031 431.285156 357.328125 436.179688 357.328125 442.226562 C 357.328125 448.09375 355.957031 453.078125 353.210938 457.179688 C 350.453125 461.265625 346.960938 464.613281 342.703125 467.191406 C 338.460938 469.769531 333.722656 471.628906 328.492188 472.800781 C 323.261719 473.953125 318.171875 474.527344 313.210938 474.527344 C 297.085938 474.527344 284.726562 470.925781 276.144531 463.714844 C 267.546875 456.507812 263.257812 445.164062 263.257812 429.683594 L 257.929688 429.683594 C 257.929688 446.941406 262.589844 459.582031 271.886719 467.59375 C 281.183594 475.585938 294.964844 479.589844 313.210938 479.589844 C 319.066406 479.589844 324.949219 478.933594 330.882812 477.589844 C 336.816406 476.257812 342.128906 474.082031 346.832031 471.050781 C 351.523438 468.023438 355.335938 464.117188 358.253906 459.308594 C 361.171875 454.503906 362.640625 448.640625 362.640625 441.695312 C 362.640625 435.109375 361.347656 429.773438 358.777344 425.679688 C 356.210938 421.585938 352.847656 418.207031 348.683594 415.535156 C 344.519531 412.867188 339.832031 410.777344 334.601562 409.265625 C 329.382812 407.75 324.105469 406.285156 318.792969 404.859375 C 311.34375 402.902344 304.839844 401.210938 299.257812 399.789062 C 293.671875 398.363281 288.507812 396.675781 283.722656 394.714844 C 279.113281 392.757812 275.425781 389.957031 272.683594 386.308594 C 269.941406 382.660156 268.570312 377.457031 268.570312 370.695312 C 268.570312 369.449219 268.921875 367.222656 269.636719 364.019531 C 270.339844 360.816406 272.03125 357.570312 274.679688 354.277344 C 277.339844 350.988281 281.410156 348.050781 286.910156 345.46875 C 292.398438 342.890625 299.925781 341.597656 309.496094 341.597656 C 316.050781 341.597656 322.03125 342.3125 327.421875 343.734375 C 332.828125 345.160156 337.488281 347.425781 341.378906 350.542969 C 345.269531 353.65625 348.285156 357.613281 350.421875 362.417969 C 352.542969 367.222656 353.613281 373.097656 353.613281 380.035156 Z M 353.613281 380.035156 " fill-opacity="1" fill-rule="nonzero"/></g></svg>