<svg xmlns="http://www.w3.org/2000/svg" xmlns:xlink="http://www.w3.org/1999/xlink" width="1080" zoomAndPan="magnify" viewBox="0 0 810 809.999993" height="1080" preserveAspectRatio="xMidYMid meet" version="1.0"><path fill="#f15a24" d="M 141.574219 811.589844 L 0 816.484375 L 72.574219 742.710938 L 141.578125 811.589844 Z M 141.574219 811.589844 " fill-opacity="1" fill-rule="nonzero"/><path fill="#f15a24" d="M 783.769531 445.714844 C 757.476562 650.71875 569.894531 795.585938 364.824219 769.242188 C 159.75 742.957031 14.871094 555.433594 41.160156 350.429688 C 67.480469 145.417969 255.03125 0.558594 460.140625 26.871094 C 665.210938 53.175781 810.125 240.714844 783.769531 445.714844 " fill-opacity="1" fill-rule="nonzero"/><path fill="#999999" d="M 507.921875 291.683594 C 532.519531 317.824219 508.257812 379.636719 508.257812 379.636719 C 508.257812 379.636719 484.246094 467.011719 346.875 580.332031 L 321.199219 555.1875 L 495.636719 376.988281 L 498.992188 372.433594 C 503.640625 364.863281 507.457031 291.175781 507.921875 291.683594 " fill-opacity="1" fill-rule="nonzero"/><path stroke-linecap="round" transform="matrix(3.078677, 0, 0, 3.077682, 0.0000035, 22.287208)" fill="none" stroke-linejoin="round" d="M 164.980549 87.532226 C 172.970233 96.025833 165.089667 116.109939 165.089667 116.109939 C 165.089667 116.109939 157.290305 144.499809 112.670138 181.319824 L 104.330264 173.149868 L 160.990149 115.249409 L 162.080055 113.769501 C 163.589936 111.309757 164.829561 87.367227 164.980549 87.532226 Z M 164.980549 87.532226 " stroke="#ffffff" stroke-width="1.918" stroke-opacity="1" stroke-miterlimit="4"/><path stroke-linecap="round" transform="matrix(3.078677, 0, 0, 3.077682, 0.0000035, 22.287208)" fill-opacity="1" fill="#666666" fill-rule="nonzero" stroke-linejoin="round" d="M 92.098956 161.110065 L 164.860013 87.322805 C 168.559857 91.707953 169.340173 96.433252 168.270568 103.170261 C 167.549885 107.829561 159.490418 117.149429 159.490418 117.149429 L 104.330264 173.149868 " stroke="#ffffff" stroke-width="1.201" stroke-opacity="1" stroke-miterlimit="4"/><path fill="#ff931e" d="M 507.921875 291.839844 L 283.542969 518.132812 L 283.996094 517.703125 L 283.914062 517.734375 L 228.242188 462.886719 C 344.320312 318.53125 419.378906 291.613281 419.378906 291.613281 C 419.378906 291.613281 468.265625 272.546875 503.117188 287.34375 C 505.796875 288.777344 506.964844 289.601562 507.921875 291.847656 " fill-opacity="1" fill-rule="nonzero"/><path stroke-linecap="round" transform="matrix(3.078677, 0, 0, 3.077682, 0.0000035, 22.287208)" fill="none" stroke-linejoin="round" d="M 164.980549 87.582994 L 92.098956 161.110065 L 92.246138 160.970451 L 92.219493 160.980605 L 74.136443 143.159514 C 111.840338 96.255561 136.220481 87.50938 136.220481 87.50938 C 136.220481 87.50938 152.099612 81.314326 163.419916 86.122124 C 164.290318 86.587927 164.669692 86.855732 164.980549 87.585533 Z M 164.980549 87.582994 " stroke="#ffffff" stroke-width="1.918" stroke-opacity="1" stroke-miterlimit="4"/><path stroke-linecap="round" transform="matrix(3.078677, 0, 0, 3.077682, 0.0000035, 22.287208)" fill-opacity="1" fill="#999999" fill-rule="nonzero" stroke-linejoin="round" d="M 112.670138 181.319824 C 95.27732 195.640412 73.023699 218.13984 42.776588 233.829914 L 49.503807 262.590395 L 20.988619 234.500061 L 92.096419 161.110065 " stroke="#ffffff" stroke-width="1.918" stroke-opacity="1" stroke-miterlimit="4"/><path stroke-linecap="round" transform="matrix(3.078677, 0, 0, 3.077682, 0.0000035, 22.287208)" fill-opacity="1" fill="#f15a24" fill-rule="nonzero" stroke-linejoin="round" d="M 74.622397 143.399397 L 92.288009 160.999643 L 51.478072 169.839747 L 74.231604 143.079554 L 74.624934 143.399397 Z M 74.622397 143.399397 " stroke="#ffffff" stroke-width="1.918" stroke-opacity="1" stroke-miterlimit="4"/><path fill="#999999" d="M 486.492188 226.171875 C 481.167969 274.308594 515.832031 317.644531 563.984375 323.011719 C 612.101562 328.355469 655.480469 293.671875 660.867188 245.550781 C 666.226562 197.433594 631.5 154.050781 583.347656 148.703125 C 535.199219 143.382812 491.847656 178.023438 486.492188 226.171875 " fill-opacity="1" fill-rule="nonzero"/><path stroke-linecap="round" transform="matrix(3.078677, 0, 0, 3.077682, 0.0000035, 22.287208)" fill="none" stroke-linejoin="round" d="M 158.019869 66.24617 C 156.290484 81.886744 167.549885 95.967449 183.19048 97.711354 C 198.819656 99.447645 212.909767 88.178258 214.659453 72.54276 C 216.400258 56.908532 205.120555 42.812597 189.479961 41.075037 C 173.840635 39.346362 159.759405 50.601788 158.019869 66.24617 Z M 158.019869 66.24617 " stroke="#ffffff" stroke-width="1.918" stroke-opacity="1" stroke-miterlimit="4"/><path fill="#666666" d="M 648.277344 284.316406 C 664.441406 260.679688 663.609375 225.324219 660.34375 214.851562 C 656.375 202.023438 647.445312 181.167969 631.898438 170.324219 L 549.667969 246.054688 C 549.667969 246.054688 612.871094 313.945312 614.503906 314.167969 C 615.179688 314.25 633.5 305.863281 648.277344 284.316406 " fill-opacity="1" fill-rule="nonzero"/><path stroke-linecap="round" transform="matrix(3.078677, 0, 0, 3.077682, 0.0000035, 22.287208)" fill="none" stroke-linejoin="round" d="M 210.570085 85.13848 C 215.820412 77.458442 215.550156 65.970749 214.489433 62.567976 C 213.200324 58.399864 210.299829 51.623508 205.249974 48.100159 L 178.540299 72.706489 C 178.540299 72.706489 199.069611 94.765499 199.599972 94.837845 C 199.819476 94.864498 205.770185 92.139487 210.570085 85.13848 Z M 205.180189 65.862866 C 205.180189 65.862866 207.740644 72.16961 204.489958 77.076407 Z M 205.180189 65.862866 " stroke="#ffffff" stroke-width="1.918" stroke-opacity="1" stroke-miterlimit="4"/><path fill="#666666" d="M 323.136719 555.21875 L 232.382812 571.347656 L 287.171875 514.4375 " fill-opacity="1" fill-rule="nonzero"/><path stroke-linecap="round" transform="matrix(3.078677, 0, 0, 3.077682, 0.0000035, 22.287208)" fill="none" stroke-linejoin="round" d="M 104.959593 173.160022 L 75.481379 178.400623 L 93.277679 159.909385 M 75.307553 143.530126 L 112.789406 178.800427 " stroke="#ffffff" stroke-width="1.918" stroke-opacity="1" stroke-miterlimit="4"/></svg>