<svg xmlns="http://www.w3.org/2000/svg" xmlns:xlink="http://www.w3.org/1999/xlink" width="1080" zoomAndPan="magnify" viewBox="0 0 810 809.999993" height="1080" preserveAspectRatio="xMidYMid meet" version="1.0"><path fill="#8f377f" d="M 67.914062 126.074219 C 104.503906 105.277344 141.164062 83.949219 177.691406 63.753906 C 213.320312 44.054688 228.660156 45.78125 262.929688 65.710938 C 293.015625 83.21875 323.097656 100.726562 353.183594 118.234375 C 401 146.070312 421.851562 142.117188 468.40625 114.84375 C 498.558594 97.171875 528.707031 79.53125 558.859375 61.859375 C 591.898438 42.523438 607.304688 43.023438 639.980469 62.621094 C 673.683594 82.820312 707.386719 103.019531 741.125 123.214844 C 786.117188 150.191406 809.992188 158.496094 809.859375 214.003906 C 809.5625 329.011719 809.859375 444.050781 809.859375 559.054688 C 757.925781 529.324219 705.960938 499.625 654.027344 469.894531 C 653.792969 378.007812 653.5625 286.125 653.363281 194.238281 C 594.453125 225.199219 535.515625 256.160156 476.609375 287.121094 C 421.851562 315.890625 395.488281 315.492188 340.199219 285.992188 C 281.523438 254.699219 222.816406 223.371094 164.109375 192.078125 C 163.414062 269.746094 162.683594 347.449219 161.984375 425.113281 C 161.585938 468 172.742188 486.039062 209.964844 506.535156 C 276.277344 543.078125 342.589844 579.652344 408.902344 616.195312 C 409.234375 584.902344 399.074219 545.371094 370.382812 528.59375 C 332.128906 506.136719 293.878906 483.679688 255.625 461.226562 C 306.792969 430.796875 357.929688 400.332031 409.101562 369.902344 C 437.257812 385.351562 465.417969 400.796875 493.574219 416.210938 C 555.96875 450.429688 560.816406 456.738281 563.308594 527.796875 C 564.070312 549.589844 564.503906 571.046875 564.902344 592.476562 C 565.566406 628.054688 569.25 640.246094 539.632812 657.121094 C 503.871094 677.515625 467.773438 697.28125 431.746094 717.179688 C 364.738281 754.1875 357.796875 767.773438 283.714844 724.355469 C 206.046875 678.847656 128.347656 633.367188 50.679688 587.859375 C 5.753906 561.613281 0.0078125 545.46875 0.0078125 493.648438 C 0.0078125 401.929688 0.0078125 310.207031 0.0078125 218.457031 C 0.0078125 162.148438 22.253906 152.015625 67.914062 126.074219 " fill-opacity="1" fill-rule="evenodd"/><path fill="#6534ae" d="M 760.617188 134.742188 C 792.992188 153.945312 809.960938 167.199219 809.859375 214.039062 C 809.5625 329.042969 809.859375 444.082031 809.859375 559.089844 C 757.925781 529.359375 705.960938 499.660156 654.027344 469.929688 C 653.792969 378.042969 653.5625 286.15625 653.363281 194.273438 C 687.097656 170.421875 722.097656 149.09375 760.617188 134.742188 Z M 760.617188 134.742188 " fill-opacity="1" fill-rule="evenodd"/><path fill="#6534ae" d="M 164.109375 192.113281 C 163.414062 269.78125 162.683594 347.480469 161.984375 425.148438 C 161.585938 468.035156 172.742188 486.074219 209.964844 506.570312 C 276.277344 543.109375 342.589844 579.6875 408.902344 616.226562 L 408.902344 615.597656 L 408.238281 730.503906 C 361.816406 756.8125 348.101562 762.128906 283.75 724.421875 C 206.082031 678.914062 128.378906 633.433594 50.710938 587.925781 C 5.753906 561.613281 0.0078125 545.46875 0.0078125 493.648438 C 0.0078125 401.929688 0.0078125 310.207031 0.0078125 218.457031 C 0.0078125 170.054688 16.445312 155.769531 50.046875 136.238281 C 91.15625 150.855469 127.648438 170.953125 164.109375 192.113281 " fill-opacity="1" fill-rule="evenodd"/></svg>