<svg xmlns="http://www.w3.org/2000/svg" xmlns:xlink="http://www.w3.org/1999/xlink" width="1080" zoomAndPan="magnify" viewBox="0 0 810 809.999993" height="1080" preserveAspectRatio="xMidYMid meet" version="1.0"><defs><clipPath id="8875c1f1a2"><path d="M 421 193.4375 L 607 193.4375 L 607 513 L 421 513 Z M 421 193.4375 " clip-rule="nonzero"/></clipPath></defs><path fill="#388e3c" d="M 291.160156 312.855469 L 208.960938 358.375 C 205.878906 360.070312 203.988281 363.222656 203.988281 366.625 L 203.988281 457.722656 C 203.988281 461.125 205.878906 464.261719 208.960938 465.96875 L 291.175781 511.527344 C 294.242188 513.21875 298.042969 513.21875 301.109375 511.527344 L 383.308594 465.96875 C 386.355469 464.261719 388.25 461.125 388.25 457.722656 L 388.25 366.625 C 388.25 363.222656 386.355469 360.085938 383.273438 358.375 L 301.09375 312.855469 C 299.550781 312 297.828125 311.578125 296.117188 311.578125 C 294.394531 311.578125 292.683594 312 291.144531 312.855469 M 714.074219 394.859375 L 700.371094 402.441406 C 699.851562 402.726562 699.550781 403.246094 699.550781 403.816406 L 699.550781 419.003906 C 699.550781 419.574219 699.867188 420.09375 700.371094 420.378906 L 714.074219 427.976562 C 714.59375 428.261719 715.214844 428.261719 715.730469 427.976562 L 729.433594 420.378906 C 729.9375 420.09375 730.253906 419.574219 730.253906 419.003906 L 730.253906 403.816406 C 730.253906 403.246094 729.9375 402.726562 729.417969 402.441406 L 715.714844 394.859375 C 715.464844 394.710938 715.179688 394.644531 714.894531 394.644531 C 714.609375 394.644531 714.324219 394.710938 714.074219 394.859375 " fill-opacity="1" fill-rule="nonzero"/><g clip-path="url(#8875c1f1a2)"><path fill="#37474f" d="M 601.839844 216.308594 L 561.824219 193.957031 C 560.566406 193.253906 559.027344 193.273438 557.785156 194.007812 C 556.546875 194.746094 555.777344 196.070312 555.777344 197.511719 L 555.757812 332.523438 L 518.855469 312.082031 C 517.316406 311.226562 515.589844 310.808594 513.882812 310.808594 C 512.171875 310.808594 510.449219 311.226562 508.90625 312.082031 L 508.921875 312.082031 L 426.726562 357.605469 C 423.644531 359.296875 421.75 362.449219 421.75 365.835938 L 421.75 456.933594 C 421.75 460.335938 423.644531 463.472656 426.726562 465.183594 L 508.941406 510.738281 C 512.003906 512.429688 515.808594 512.429688 518.875 510.738281 L 601.070312 465.183594 C 604.121094 463.488281 606.011719 460.335938 606.011719 456.933594 L 606.011719 223.417969 C 606.011719 220.46875 604.40625 217.75 601.839844 216.308594 Z M 553.515625 435.855469 L 516.160156 456.5625 C 514.769531 457.335938 513.042969 457.335938 511.652344 456.5625 L 474.28125 435.855469 C 472.859375 435.085938 472.003906 433.644531 472.003906 432.101562 L 472.003906 390.6875 C 472.003906 389.144531 472.859375 387.71875 474.265625 386.929688 L 511.636719 366.238281 L 511.621094 366.238281 C 512.324219 365.855469 513.09375 365.667969 513.882812 365.667969 C 514.667969 365.667969 515.441406 365.871094 516.144531 366.238281 L 553.5 386.929688 C 554.90625 387.71875 555.757812 389.160156 555.757812 390.703125 L 555.757812 432.117188 C 555.757812 433.644531 554.90625 435.085938 553.515625 435.855469 Z M 553.515625 435.855469 " fill-opacity="1" fill-rule="nonzero"/></g><path fill="#2e7d32" d="M 291.160156 312.855469 L 203.988281 457.722656 C 203.988281 461.125 205.878906 464.261719 208.960938 465.96875 L 291.175781 511.527344 C 294.242188 513.21875 298.042969 513.21875 301.109375 511.527344 L 388.25 366.625 C 388.25 363.222656 386.355469 360.085938 383.273438 358.375 L 301.09375 312.855469 C 299.550781 312 297.828125 311.578125 296.117188 311.578125 C 294.394531 311.578125 292.683594 312 291.144531 312.855469 " fill-opacity="1" fill-rule="nonzero"/><path fill="#4caf50" d="M 291.160156 312.855469 L 208.960938 358.375 C 205.878906 360.070312 203.988281 363.222656 203.988281 366.625 L 291.160156 511.527344 C 294.226562 513.21875 298.027344 513.21875 301.09375 511.527344 L 383.289062 465.96875 C 386.355469 464.261719 388.25 461.125 388.25 457.722656 L 301.09375 312.855469 C 299.550781 312 297.828125 311.578125 296.117188 311.578125 C 294.394531 311.578125 292.683594 312 291.144531 312.855469 " fill-opacity="1" fill-rule="nonzero"/><path fill="#37474f" d="M 802.050781 357.605469 L 719.871094 312.082031 C 718.328125 311.226562 716.601562 310.808594 714.894531 310.808594 C 713.1875 310.808594 711.460938 311.226562 709.917969 312.082031 L 709.9375 312.082031 L 627.738281 357.605469 C 624.671875 359.296875 622.765625 362.519531 622.765625 366.039062 L 622.765625 456.765625 C 622.765625 460.269531 624.671875 463.503906 627.738281 465.199219 L 709.953125 510.753906 C 713.035156 512.464844 716.804688 512.464844 719.886719 510.753906 L 757.792969 489.746094 C 761.261719 487.816406 761.246094 482.835938 757.761719 480.925781 L 675.277344 435.875 C 673.886719 435.085938 673.015625 433.625 673.015625 432.050781 L 673.015625 390.703125 C 673.015625 389.160156 673.855469 387.734375 675.195312 386.996094 L 712.632812 366.273438 L 712.617188 366.273438 C 713.320312 365.886719 714.089844 365.703125 714.878906 365.703125 C 715.664062 365.703125 716.4375 365.90625 717.140625 366.273438 L 754.578125 387.015625 C 755.917969 387.753906 756.753906 389.175781 756.753906 390.71875 L 756.753906 424.457031 C 756.753906 425.898438 757.527344 427.238281 758.78125 427.960938 C 760.039062 428.664062 761.578125 428.664062 762.835938 427.941406 L 803.003906 404.585938 C 805.484375 403.144531 807.027344 400.476562 807.027344 397.59375 L 807.027344 366.074219 C 807.027344 362.535156 805.117188 359.296875 802.050781 357.605469 Z M 182.261719 357.605469 L 100.082031 312.082031 C 98.539062 311.226562 96.8125 310.808594 95.105469 310.808594 C 93.398438 310.808594 91.671875 311.226562 90.128906 312.082031 L 90.148438 312.082031 L 7.949219 357.605469 C 4.882812 359.296875 2.972656 362.519531 2.972656 366.039062 L 2.972656 491.203125 C 2.972656 492.648438 3.746094 493.988281 5 494.707031 C 6.257812 495.414062 7.796875 495.414062 9.054688 494.691406 L 49.222656 471.335938 C 51.703125 469.894531 53.226562 467.226562 53.226562 464.34375 L 53.226562 390.6875 C 53.226562 389.144531 54.066406 387.71875 55.40625 386.980469 L 92.84375 366.257812 C 93.546875 365.871094 94.316406 365.6875 95.105469 365.6875 C 95.894531 365.6875 96.664062 365.886719 97.367188 366.257812 L 134.804688 386.996094 C 136.144531 387.734375 136.984375 389.160156 136.984375 390.703125 L 136.984375 464.359375 C 136.984375 467.246094 138.507812 469.910156 141.003906 471.351562 L 181.171875 494.707031 C 182.429688 495.429688 183.96875 495.429688 185.226562 494.726562 C 186.464844 493.988281 187.234375 492.648438 187.234375 491.203125 L 187.234375 366.054688 C 187.234375 362.535156 185.328125 359.296875 182.261719 357.605469 Z M 182.261719 357.605469 " fill-opacity="1" fill-rule="nonzero"/></svg>